<svg width="155" height="156" viewBox="0 0 155 156" fill="none" xmlns="http://www.w3.org/2000/svg">
<path d="M81.8042 0.129654C91.6889 0.80918 101.936 3.31663 110.861 7.55688C135.65 19.8835 152.421 44.0068 154.816 71.6942C155.994 90.1433 151.521 106.839 141.399 121.782C117.979 156.356 70.7347 166.458 35.6473 143.524C25.3207 136.701 17.0225 127.956 10.7527 117.287C5.88052 109.046 2.63805 100.109 1.0253 90.4729C0.30727 85.9177 -0.0336294 81.2673 0.00261197 76.5222C0.462425 76.4971 0.696865 76.7882 0.705923 77.3954C0.712718 78.1585 0.728572 78.7793 0.753487 79.2573C0.841825 81.1634 0.610789 82.9845 0.872407 84.9042C0.885998 85.0061 0.927897 85.0944 0.998116 85.1692C1.25181 85.4454 1.39904 85.7692 1.43982 86.1409C1.45114 86.2541 1.51229 86.2992 1.62328 86.2768C2.98233 85.9948 3.00612 85.0672 3.68905 84.3503C4.1851 83.8339 8.20111 80.1169 8.24528 82.7603C8.24647 82.8496 8.26899 82.9373 8.31099 83.0161C8.35301 83.0949 8.41326 83.1629 8.48671 83.2135C8.5602 83.2645 8.64477 83.2971 8.73338 83.3086C8.82199 83.3202 8.9121 83.3103 8.99615 83.2801L9.97127 82.9335C10.0981 82.888 10.2046 82.9165 10.2907 83.0185C10.8252 83.6504 11.4968 83.8111 12.3054 83.5009C12.4481 83.4466 12.481 83.3525 12.404 83.2189L12.2137 82.8826C12.1571 82.7874 12.1684 82.7001 12.2477 82.6209C12.9544 81.9176 14.0654 82.7874 15.0236 81.7172C15.1119 81.6173 15.2172 81.5415 15.3395 81.4895C15.5434 81.3988 15.7552 81.3615 15.9749 81.3774C16.0903 81.3839 16.2057 81.358 16.3079 81.3027C16.5729 81.1552 16.7167 80.93 16.7394 80.6265C16.7415 80.5932 16.7503 80.5603 16.7655 80.5301C16.7807 80.4998 16.8018 80.4723 16.8277 80.4499C17.0678 80.2324 17.3475 80.0999 17.6669 80.0523C17.7847 80.034 17.8991 80.0024 18.0101 79.9572C18.5084 79.7533 18.8855 79.4272 19.1415 78.9787C19.2049 78.8676 19.2944 78.7884 19.4099 78.7409C19.9399 78.521 20.2729 78.1395 20.4088 77.5958C20.4228 77.5422 20.4482 77.4922 20.4833 77.4491C20.5184 77.4056 20.5625 77.3699 20.6127 77.3444C20.9887 77.161 21.1789 76.8154 21.1835 76.3082C21.1857 76.0272 21.3477 75.9093 21.6693 75.9548C21.6747 75.9541 21.6801 75.9558 21.6842 75.9596C21.6884 75.963 21.691 75.968 21.6914 75.9735C21.6919 75.9789 21.6902 75.984 21.6866 75.9884C21.6831 75.9925 21.6781 75.9949 21.6727 75.9956C21.6455 76.0068 21.6172 76.016 21.5878 76.0228C21.5842 76.0241 21.581 76.0261 21.5785 76.0289C21.5759 76.0316 21.5741 76.035 21.5731 76.0387C21.5721 76.0425 21.572 76.0462 21.5727 76.0499C21.5735 76.0537 21.5752 76.0571 21.5776 76.0601L21.7135 76.2708C21.7191 76.2789 21.7266 76.2861 21.7355 76.2908C21.7444 76.2956 21.7544 76.298 21.7645 76.298C21.7746 76.298 21.7845 76.2956 21.7934 76.2908C21.8023 76.2861 21.8099 76.2789 21.8154 76.2708L22.0091 75.9718C22.1065 75.8199 22.0657 75.735 21.8868 75.717C21.4994 75.6762 21.2877 75.4302 21.2514 74.9797C21.2378 74.8346 21.3001 74.7384 21.4383 74.6909L21.9547 74.5142C22.0159 74.4938 22.0612 74.5108 22.0906 74.5652L22.145 74.6671C22.2401 74.8482 22.3002 74.837 22.3251 74.6331C22.461 73.5323 22.495 72.4257 22.427 71.3136C22.3862 70.6681 22.8007 69.9987 22.8517 69.2649C22.9197 68.2693 23.3512 67.5253 23.4735 66.5671C23.5924 65.6192 23.9118 64.6441 24.0341 63.7709C24.2447 62.2691 24.6219 60.8047 25.1655 59.3777C25.2538 59.1443 25.2765 58.7944 25.2334 58.3279C25.2221 58.2056 25.247 58.09 25.3082 57.9813L26.7726 55.3312C26.7937 55.2928 26.8059 55.2503 26.8082 55.2068C26.8106 55.1633 26.803 55.1198 26.7862 55.0797C26.11 53.4421 27.1497 52.8543 27.9448 51.7942C28.0082 51.7079 28.0897 51.6457 28.1894 51.6073C28.8689 51.3389 28.5699 50.6934 28.8078 50.2619C28.9935 49.9265 29.2596 49.6693 29.6062 49.4906C29.6968 49.4431 29.7421 49.3683 29.7421 49.2664C29.7421 49.2392 29.7455 49.2086 29.7523 49.1746C29.784 49.0092 29.8146 48.9028 29.844 48.8553L31.3968 46.2697C31.4244 46.2245 31.464 46.1874 31.5113 46.163C31.5585 46.1385 31.6117 46.127 31.6652 46.1304L32.0593 46.1507C16.1821 69.9138 22.6614 106.027 48.0555 120.586C56.3287 125.407 67.0754 127.911 76.4597 125.295C86.3026 122.557 94.9666 115.136 100.325 106.472C106.128 97.0857 109.195 86.7307 109.525 75.4078C110.463 53.5236 101.205 31.0415 77.8289 26.1523C71.3055 24.7864 64.782 25.5033 58.2789 27.0391C58.1678 27.0435 58.0737 27.0289 57.9969 26.9949C57.8994 26.9541 57.8868 26.895 57.9596 26.8182C58.0635 26.7095 58.1723 26.6392 58.2857 26.6076C61.9586 25.6086 65.9916 25.3097 69.7731 24.9529C71.1954 24.817 73.1106 24.9481 75.5185 25.347C81.5887 26.3527 86.9516 28.3516 91.6063 31.3439C91.6991 31.4026 91.801 31.4322 91.9121 31.4322H92.1058C92.2621 31.4322 92.3728 31.5012 92.4387 31.6394C92.715 32.2055 93.1849 32.4967 93.8488 32.5126C93.9364 32.5099 94.02 32.4749 94.0835 32.4145C94.1471 32.3543 94.1865 32.2724 94.1936 32.1851C94.2008 32.0975 94.1753 32.0105 94.1223 31.9405C94.0693 31.8705 93.9925 31.8226 93.9065 31.8059C93.7591 31.7832 93.6425 31.705 93.5566 31.5715C93.4954 31.4784 93.5202 31.4342 93.6313 31.439C93.9235 31.4526 94.1192 31.5701 94.2191 31.7923C94.2619 31.8851 94.3312 31.9463 94.4264 31.9758C95.5816 32.3404 96.6518 32.8694 97.6371 33.5625C97.7323 33.6305 97.8376 33.6746 97.9531 33.695C98.3041 33.7606 98.5001 33.9689 98.5409 34.3202C98.5545 34.4333 98.6167 34.5037 98.7278 34.5308C99.7403 34.7619 100.698 33.7766 101.16 33.0155C101.521 32.4209 101.935 32.217 102.53 31.9894C102.614 31.9558 102.687 31.8994 102.74 31.8263C103.075 31.3574 103.524 31.0605 104.086 30.9361C104.138 30.9236 104.186 30.8974 104.225 30.8604C104.264 30.8233 104.292 30.7768 104.307 30.7255C104.465 30.1931 104.814 29.8645 105.353 29.7402C105.401 29.7296 105.446 29.7079 105.484 29.6766C105.522 29.6454 105.553 29.6053 105.574 29.5601L106.138 28.3166C106.156 28.2751 106.185 28.2391 106.222 28.2123C106.258 28.1854 106.3 28.1688 106.345 28.1637L107.446 28.0448C107.573 28.0312 107.671 27.971 107.742 27.8647C108.217 27.141 109.706 27.056 109.393 26.0945C109.381 26.0595 109.38 26.0225 109.389 25.9868C109.397 25.9511 109.416 25.9185 109.442 25.893C109.469 25.8672 109.502 25.8492 109.538 25.841C109.574 25.8326 109.612 25.8346 109.648 25.8465C110.314 26.0751 110.823 25.8907 111.177 25.2927C111.197 25.2563 111.243 25.2325 111.316 25.2213C111.42 25.2054 111.49 25.1486 111.527 25.0514C111.751 24.4783 112.182 24.2302 112.821 24.3074C112.867 24.3128 112.913 24.3009 112.95 24.2747C112.988 24.2486 113.014 24.2092 113.025 24.1647C113.129 23.7046 113.412 23.4566 113.874 23.4206C114.015 23.4114 114.129 23.3513 114.218 23.2405C114.963 22.3299 115.83 21.5755 116.82 20.9775C116.911 20.9209 116.974 20.8428 117.01 20.7431C117.135 20.3784 117.394 20.1995 117.788 20.2063C117.911 20.2086 118.017 20.1689 118.108 20.0874C118.611 19.6321 119.188 19.2753 119.841 19.0171C119.949 18.9718 120.051 18.9842 120.146 19.0545C121.101 19.7442 122.199 19.8835 123.191 20.5358C124.475 21.3751 125.212 19.6355 123.826 18.8336C123.771 18.8012 123.727 18.7538 123.699 18.6971C123.67 18.6404 123.659 18.5769 123.666 18.5143L123.785 17.5765C123.797 17.4927 123.844 17.4565 123.928 17.4678L124.268 17.512C124.426 17.5346 124.449 17.4904 124.336 17.3794L122.593 15.6874C122.516 15.6127 122.481 15.5221 122.487 15.4156C122.489 15.368 122.484 15.3194 122.47 15.2695C122.45 15.1834 122.388 15.1019 122.284 15.0249C120.446 13.6703 118.534 12.4314 116.545 11.3079C115.859 10.9205 115.026 10.2818 114.163 9.89785C113.725 9.70758 113.103 9.8299 112.855 9.15377C112.814 9.04277 112.741 8.96011 112.634 8.90574C109.062 7.05291 105.353 5.53414 101.507 4.34952C100.607 4.07091 100.311 3.91802 99.1253 3.87385C98.1332 3.83647 97.0222 3.07201 95.7582 3.06861C93.9235 3.06405 92.1646 2.6858 90.4817 1.9338C89.8769 1.66538 88.5892 1.38678 87.9641 1.3596C85.8915 1.27126 83.9175 1.09458 81.8042 1.22709C77.6703 1.48759 73.5387 1.41848 69.4096 1.01983C69.3029 1.00852 69.2 1.04134 69.1004 1.11837C69.0148 1.18649 68.9095 1.22362 68.8014 1.22369C65.4806 1.2418 62.228 1.71635 59.0434 2.6473C58.8008 2.71753 58.5766 2.75375 58.3707 2.75602C57.7591 2.76282 57.5417 2.67221 57.7183 2.48421C62.7808 1.16141 68.4749 0.348904 73.5805 0.101997L75.4108 0.0214737L77.2625 0L79.5223 0.0268408L81.8042 0.129654Z" fill="url(#paint0_linear_302_178)"/>
<path d="M58.2789 27.0392C47.4575 29.8695 38.1649 36.821 32.0593 46.1509L31.6652 46.1306C31.6118 46.1272 31.5585 46.1387 31.5113 46.1632C31.464 46.1876 31.4244 46.2243 31.3968 46.2699L29.8441 48.8555C29.8146 48.903 29.784 49.0094 29.7523 49.1748C29.7455 49.2088 29.7421 49.2394 29.7421 49.2666C29.7421 49.3685 29.6969 49.4432 29.6062 49.4908C29.2597 49.6695 28.9935 49.9267 28.8078 50.2621C28.57 50.6936 28.8689 51.3391 28.1894 51.6075C28.0898 51.6459 28.0082 51.7081 27.9448 51.7944C27.1497 52.8541 26.1101 53.4423 26.7862 55.0799C26.8031 55.12 26.8106 55.1635 26.8083 55.207C26.8059 55.2505 26.7937 55.293 26.7726 55.3313L25.3082 57.9815C25.2471 58.0902 25.2222 58.2057 25.2335 58.3281C25.2765 58.7946 25.2539 59.1445 25.1655 59.3779C24.6219 60.8049 24.2448 62.2693 24.0341 63.7711C23.9118 64.6443 23.5924 65.6194 23.4735 66.5673C23.3512 67.5255 22.9197 68.2695 22.8517 69.265C22.8008 69.9989 22.3863 70.6683 22.427 71.3138C22.495 72.4259 22.461 73.5325 22.3251 74.6333C22.3002 74.8372 22.2402 74.8484 22.145 74.6673L22.0907 74.5654C22.0612 74.511 22.0159 74.494 21.9548 74.514L21.4383 74.6911C21.3001 74.7386 21.2379 74.8348 21.2515 74.9799C21.2877 75.4304 21.4995 75.6764 21.8868 75.7172C22.0658 75.7352 22.1065 75.8201 22.0091 75.972L21.8155 76.271C21.8099 76.2791 21.8023 76.2863 21.7934 76.291C21.7845 76.2958 21.7746 76.2981 21.7645 76.2981C21.7544 76.2981 21.7445 76.2958 21.7356 76.291C21.7267 76.2863 21.7191 76.2791 21.7135 76.271L21.5776 76.0603C21.5752 76.0573 21.5736 76.0539 21.5728 76.0501C21.572 76.0464 21.5721 76.0426 21.5731 76.0389C21.5741 76.0352 21.576 76.0318 21.5785 76.0291C21.5811 76.0263 21.5843 76.024 21.5878 76.0229C21.6173 76.0158 21.6456 76.007 21.6728 75.9958C21.6782 75.9951 21.6832 75.9927 21.6867 75.9883C21.6902 75.9842 21.6919 75.9788 21.6914 75.9737C21.691 75.9682 21.6884 75.9631 21.6843 75.9597C21.6801 75.956 21.6748 75.9543 21.6694 75.955C21.3477 75.9095 21.1858 76.0274 21.1835 76.308C21.179 76.8156 20.9887 77.1611 20.6127 77.3446C20.5625 77.3701 20.5185 77.4058 20.4834 77.4489C20.4482 77.4924 20.4228 77.5424 20.4088 77.596C20.2729 78.1397 19.94 78.5212 19.4099 78.741C19.2944 78.7886 19.205 78.8678 19.1415 78.9789C18.8856 79.4274 18.5084 79.7535 18.0101 79.9574C17.8991 80.0026 17.7847 80.0342 17.667 80.0522C17.3476 80.0998 17.0678 80.2326 16.8277 80.4501C16.8018 80.4725 16.7807 80.4997 16.7656 80.5302C16.7504 80.5605 16.7415 80.5931 16.7394 80.6264C16.7168 80.9301 16.5729 81.1554 16.3079 81.3029C16.2057 81.3582 16.0904 81.3841 15.9749 81.3776C15.7552 81.3616 15.5434 81.399 15.3396 81.4897C15.2173 81.5417 15.1119 81.6175 15.0236 81.7174C14.0655 82.7876 12.9544 81.9175 12.2477 82.6208C12.1685 82.7003 12.1571 82.7876 12.2137 82.8828L12.404 83.2188C12.481 83.3527 12.4482 83.4468 12.3055 83.5011C11.4968 83.8113 10.8252 83.6506 10.2907 83.0187C10.2046 82.9167 10.0981 82.8882 9.97131 82.9337L8.99619 83.2799C8.91213 83.3105 8.82206 83.3204 8.73341 83.3088C8.6448 83.2973 8.56024 83.2647 8.48678 83.2137C8.41329 83.1627 8.35305 83.0951 8.31106 83.0163C8.26906 82.9375 8.2465 82.8498 8.24531 82.7605C8.20114 80.1171 4.18514 83.8341 3.68908 84.3505C3.00617 85.0674 2.98238 85.9947 1.62332 86.2767C1.51233 86.2994 1.45118 86.2542 1.43986 86.1411C1.39909 85.7694 1.25185 85.4456 0.998161 85.169C0.927942 85.0943 0.886039 85.0063 0.872449 84.9044C0.610831 82.9847 0.841866 81.1636 0.753528 79.2575C0.728613 78.7794 0.712763 78.1587 0.705968 77.3956C0.696906 76.7884 0.46247 76.4972 0.00265503 76.5224C0.24502 66.3927 2.28134 56.6595 6.1116 47.3231C15.1867 25.5307 33.2689 9.70435 55.7375 2.99742C56.4395 2.78904 57.1 2.61801 57.7183 2.48438C57.5417 2.67237 57.7591 2.76298 58.3707 2.75619C58.5766 2.75395 58.8008 2.71769 59.0434 2.64746C62.228 1.71651 65.4806 1.24197 68.8014 1.22386C68.9095 1.22379 69.0148 1.18669 69.1004 1.11853C69.2 1.0415 69.3029 1.00868 69.4096 1.02C73.5387 1.41864 77.6703 1.48775 81.8042 1.22725C83.9175 1.09475 85.8915 1.27142 87.9641 1.35976C88.5892 1.38694 89.8769 1.66555 90.4817 1.93396C92.1646 2.68596 93.9235 3.06425 95.7582 3.06877C97.0222 3.07217 98.1332 3.83664 99.1253 3.87401C100.311 3.91818 100.607 4.07107 101.507 4.34968C105.353 5.53433 109.062 7.05307 112.634 8.90591C112.741 8.96027 112.814 9.04293 112.855 9.15393C113.103 9.83006 113.725 9.70775 114.163 9.89802C115.026 10.2819 115.859 10.9207 116.545 11.308C118.534 12.4315 120.446 13.6705 122.284 15.025C122.388 15.1021 122.45 15.1836 122.47 15.2697C122.484 15.3195 122.489 15.3682 122.487 15.4158C122.481 15.5222 122.516 15.6128 122.593 15.6876L124.336 17.3796C124.449 17.4906 124.426 17.5348 124.268 17.5121L123.928 17.4679C123.844 17.4566 123.797 17.4928 123.785 17.5767L123.666 18.5144C123.659 18.5771 123.67 18.6406 123.699 18.6973C123.727 18.7539 123.771 18.8014 123.826 18.8338C125.212 19.6356 124.475 21.3752 123.191 20.536C122.199 19.8837 121.101 19.7444 120.146 19.0546C120.051 18.9844 119.949 18.972 119.841 19.0173C119.188 19.2755 118.611 19.6322 118.108 20.0875C118.017 20.1691 117.911 20.2087 117.788 20.2064C117.394 20.1996 117.135 20.3786 117.01 20.7433C116.974 20.8429 116.911 20.9211 116.82 20.9777C115.83 21.5757 114.963 22.3301 114.218 23.2407C114.129 23.3515 114.015 23.4116 113.874 23.4208C113.412 23.4568 113.129 23.7048 113.025 24.1645C113.014 24.2094 112.988 24.2484 112.95 24.2749C112.913 24.3011 112.867 24.3126 112.821 24.3076C112.182 24.2304 111.751 24.4785 111.527 25.0516C111.49 25.1488 111.42 25.2055 111.316 25.2215C111.243 25.2327 111.197 25.2565 111.177 25.2929C110.823 25.8909 110.314 26.0753 109.648 25.8467C109.612 25.8348 109.574 25.8328 109.538 25.8412C109.502 25.8494 109.469 25.8674 109.442 25.8932C109.416 25.9187 109.397 25.9513 109.389 25.987C109.38 26.0223 109.381 26.0597 109.393 26.0947C109.706 27.0562 108.217 27.1412 107.742 27.8649C107.671 27.9712 107.573 28.0314 107.446 28.045L106.345 28.1639C106.301 28.169 106.258 28.1856 106.222 28.2125C106.185 28.2393 106.156 28.275 106.138 28.3164L105.574 29.5603C105.553 29.6055 105.522 29.6456 105.484 29.6765C105.446 29.7078 105.401 29.7295 105.353 29.7404C104.814 29.8647 104.465 30.1933 104.307 30.7257C104.292 30.777 104.264 30.8235 104.225 30.8606C104.186 30.8976 104.138 30.9238 104.086 30.9363C103.524 31.0607 103.075 31.3576 102.74 31.8265C102.687 31.8996 102.614 31.956 102.53 31.9896C101.935 32.2172 101.521 32.4211 101.16 33.0157C100.698 33.7768 99.7403 34.7621 98.7278 34.531C98.6167 34.5038 98.5545 34.4335 98.5409 34.3204C98.5001 33.9691 98.3041 33.7608 97.9531 33.6952C97.8376 33.6748 97.7323 33.6303 97.6371 33.5627C96.6518 32.8696 95.5816 32.3406 94.4264 31.976C94.3312 31.9465 94.2623 31.8853 94.2191 31.7925C94.1192 31.5703 93.9235 31.4528 93.6313 31.4392C93.5202 31.4344 93.4954 31.4786 93.5566 31.5717C93.6425 31.7052 93.7591 31.7834 93.9065 31.8061C93.9925 31.8228 94.0696 31.8707 94.1223 31.9407C94.1753 32.0107 94.2008 32.0976 94.1936 32.1853C94.1865 32.2726 94.1474 32.3542 94.0835 32.4146C94.02 32.4751 93.9364 32.5101 93.8488 32.5128C93.1849 32.4969 92.715 32.2057 92.4388 31.6393C92.3732 31.5014 92.2621 31.4324 92.1058 31.4324H91.9121C91.801 31.4324 91.6991 31.4028 91.6063 31.3441C86.9516 28.3518 81.5887 26.3529 75.5185 25.3472C73.1106 24.9483 71.1954 24.8172 69.7731 24.9531C65.9916 25.3099 61.9586 25.6085 58.2857 26.6074C58.1723 26.6393 58.0635 26.7097 57.9596 26.8184C57.8868 26.8952 57.8994 26.9543 57.9969 26.9951C58.0737 27.0291 58.1678 27.0437 58.2789 27.0392Z" fill="url(#paint1_linear_302_178)"/>
<defs>
<linearGradient id="paint0_linear_302_178" x1="143.72" y1="50.1151" x2="47.2271" y2="155.951" gradientUnits="userSpaceOnUse">
<stop stop-color="#B40FAD"/>
<stop offset="1" stop-color="#4446ED"/>
</linearGradient>
<linearGradient id="paint1_linear_302_178" x1="115.507" y1="28.4357" x2="67.9989" y2="104.983" gradientUnits="userSpaceOnUse">
<stop stop-color="#B40FAD"/>
<stop offset="1" stop-color="#4446ED"/>
</linearGradient>
</defs>
</svg>
